<svg xmlns="http://www.w3.org/2000/svg" viewBox="0 0 941 1672" width="941" height="1672">
  <defs>
    <linearGradient id="skin" x1="0" x2="0" y1="0" y2="1"><stop stop-color="#f1c7a8"/><stop offset="1" stop-color="#dfaa83"/></linearGradient>
    <linearGradient id="soft" x1="0" x2="0" y1="0" y2="1"><stop stop-color="#ffffff"/><stop offset="1" stop-color="#eef4f8"/></linearGradient>
    <filter id="shadow" x="-20%" y="-20%" width="140%" height="140%"><feDropShadow dx="0" dy="12" stdDeviation="16" flood-opacity=".12"/></filter>
  </defs>
  <rect width="941" height="1672" fill="url(#soft)"/>
  <text x="470" y="54" text-anchor="middle" font-family="Arial, sans-serif" font-size="32" font-weight="700" fill="#64748b">Circulatory</text>
  
  <g id="body" filter="url(#shadow)" opacity=".98">
    <ellipse cx="470" cy="145" rx="72" ry="86" fill="url(#skin)" stroke="#9b6b4a" stroke-width="3"/>
    <path d="M405 238 C330 275 315 380 300 530 L260 820 C254 870 314 878 328 828 L370 545 L365 760 L335 1190 L310 1535 C307 1590 392 1600 405 1540 L455 1195 L472 850 L488 1195 L536 1540 C549 1600 635 1590 630 1535 L605 1190 L575 760 L570 545 L613 828 C627 878 687 870 681 820 L640 530 C625 380 610 275 535 238 C510 226 430 226 405 238 Z" fill="url(#skin)" stroke="#9b6b4a" stroke-width="4"/>
  </g>

  <g fill="none" stroke-linecap="round" opacity=".95">
    <path d="M470 185 L470 1480" stroke="#dc2626" stroke-width="13"/>
    <path d="M495 185 L495 1480" stroke="#2563eb" stroke-width="11"/>
    <ellipse cx="485" cy="470" rx="45" ry="55" fill="#dc2626" stroke="#7f1d1d" stroke-width="3"/>
    <path d="M470 430 C390 430 345 470 320 555 M495 430 C575 430 620 470 645 555" stroke="#dc2626" stroke-width="8"/>
    <path d="M470 700 C390 820 360 1120 350 1450 M495 700 C570 820 590 1120 600 1450" stroke="#2563eb" stroke-width="8"/>
    <path d="M468 520 C420 600 385 680 350 820 M500 520 C548 600 585 680 620 820" stroke="#dc2626" stroke-width="6"/>
  </g>

</svg>