<svg xmlns="http://www.w3.org/2000/svg" viewBox="0 0 941 1672" width="941" height="1672">
  <defs>
    <linearGradient id="skin" x1="0" x2="0" y1="0" y2="1"><stop stop-color="#f1c7a8"/><stop offset="1" stop-color="#dfaa83"/></linearGradient>
    <linearGradient id="soft" x1="0" x2="0" y1="0" y2="1"><stop stop-color="#ffffff"/><stop offset="1" stop-color="#eef4f8"/></linearGradient>
    <filter id="shadow" x="-20%" y="-20%" width="140%" height="140%"><feDropShadow dx="0" dy="12" stdDeviation="16" flood-opacity=".12"/></filter>
  </defs>
  <rect width="941" height="1672" fill="url(#soft)"/>
  <text x="470" y="54" text-anchor="middle" font-family="Arial, sans-serif" font-size="32" font-weight="700" fill="#64748b">Skeletal system</text>
  
  <g id="body" filter="url(#shadow)" opacity=".98">
    <ellipse cx="470" cy="145" rx="72" ry="86" fill="url(#skin)" stroke="#9b6b4a" stroke-width="3"/>
    <path d="M405 238 C330 275 315 380 300 530 L260 820 C254 870 314 878 328 828 L370 545 L365 760 L335 1190 L310 1535 C307 1590 392 1600 405 1540 L455 1195 L472 850 L488 1195 L536 1540 C549 1600 635 1590 630 1535 L605 1190 L575 760 L570 545 L613 828 C627 878 687 870 681 820 L640 530 C625 380 610 275 535 238 C510 226 430 226 405 238 Z" fill="url(#skin)" stroke="#9b6b4a" stroke-width="4"/>
  </g>

  <g fill="none" stroke="#475569" stroke-linecap="round" opacity=".95">
    <ellipse cx="470" cy="145" rx="55" ry="65" fill="#f8fafc" stroke-width="6"/>
    <path d="M470 210 L470 780" stroke-width="10"/>
    <path d="M380 270 C430 330 510 330 560 270" stroke-width="8"/>
    <path d="M390 320 C435 355 505 355 550 320 M382 365 C432 400 508 400 558 365 M378 410 C430 445 510 445 562 410" stroke-width="5"/>
    <path d="M360 520 L300 810 M580 520 L640 810" stroke-width="9"/>
    <path d="M390 780 L350 1490 M550 780 L590 1490" stroke-width="10"/>
    <path d="M375 770 C420 810 520 810 565 770" stroke-width="8"/>
    <circle cx="350" cy="1180" r="22" fill="#f8fafc"/><circle cx="590" cy="1180" r="22" fill="#f8fafc"/>
  </g>

</svg>